# xmcd
#
# Track frame offsets:
#	150
#	14292
#	27997
#	41349
#	54587
#	68322
#	83152
#	95628
#	108292
#	121327
#	134955
#	147019
#	163264
#	177353
#	190510
#	202163
#	213884
#	227724
#	242794
#	255174
#	267685
#	282677
#
# Disc length: 3944 seconds
#
# Revision: 3
# Processed by: cddbd v1.5.2PL0 Copyright (c) Steve Scherf et al.
# Submitted via: EZCDAudioConverter 8.3.2.1
#
DISCID=410f6616
DTITLE=Compay Segundo - la légende latino
DYEAR=2002
DGENRE=World
TTITLE0=Macusa
TTITLE1=Yo canto en el Lano
TTITLE2=Quiero mi guajira
TTITLE3=Vidita mia
TTITLE4=Huellas del pasado
TTITLE5=Vendedor de agua
TTITLE6=Mujeres conmigo van a acabar
TTITLE7=Nadie nos ve
TTITLE8=Venga guano caballeros
TTITLE9=Sentimiento guajiro
TTITLE10=Guananey
TTITLE11=Juramento
TTITLE12=Ahora me da pena
TTITLE13=La lengua
TTITLE14=Qui parle français
TTITLE15=Filiberto
TTITLE16=Voy pa'mayari
TTITLE17=El penquito e coleto
TTITLE18=San Luisera
TTITLE19=Baja y tapa la olla
TTITLE20=Sarandonga
TTITLE21=Tente en pie
EXTD=
EXTT0=
EXTT1=
EXTT2=
EXTT3=
EXTT4=
EXTT5=
EXTT6=
EXTT7=
EXTT8=
EXTT9=
EXTT10=
EXTT11=
EXTT12=
EXTT13=
EXTT14=
EXTT15=
EXTT16=
EXTT17=
EXTT18=
EXTT19=
EXTT20=
EXTT21=
PLAYORDER=
